<svg width="587" height="300" viewBox="0 0 587 300" fill="none" xmlns="http://www.w3.org/2000/svg">
<g opacity="0.9">
<rect x="0.5" y="0.5" width="585.451" height="299" stroke="#00FFFF"/>
<rect x="13.5488" y="13.5273" width="559.11" height="270.968" fill="#00FFFF" fill-opacity="0.1"/>
<rect y="294.178" width="586.451" height="5.80645" fill="#00FFFF"/>
<path d="M139.357 0H441.867C441.867 0 440.324 3.87097 437.421 3.87097C434.517 3.87097 149.034 3.87097 145.163 3.87097C141.292 3.87097 139.357 0 139.357 0Z" fill="#00FFFF"/>
<path d="M143.223 281.682L127.74 295.23H158.707L143.223 281.682Z" stroke="#00FFFF"/>
<path d="M210.137 9.76367L201.29 2.02174H218.985L210.137 9.76367Z" stroke="#00FFFF"/>
<path d="M368.843 9.76367L359.995 2.02174H377.691L368.843 9.76367Z" stroke="#00FFFF"/>
<path d="M458.709 282.531L443.226 296.08H474.193L458.709 282.531Z" stroke="#00FFFF"/>
<path d="M292.535 278.768L274.84 294.251H310.231L292.535 278.768Z" fill="#00FFFF"/>
<path d="M293.507 267.123L261.291 295.312H325.723L293.507 267.123Z" stroke="#00FFFF"/>
<path d="M294 11.4805L285 3.48047H303L294 11.4805Z" fill="#00FFFF"/>
<path d="M293.723 17.4551L277 2.82285H310.445L293.723 17.4551Z" stroke="#00FFFF"/>
<path d="M419.999 149.723H168.386M293.225 87.0117V213.399" stroke="#00FFFF" stroke-width="0.5"/>
<rect x="292.737" y="137.839" width="0.967742" height="24.1936" fill="#00FFFF" stroke="#00FFFF" stroke-width="0.967742"/>
<rect x="279.195" y="149.484" width="28.0644" height="0.967742" fill="#00FFFF" stroke="#00FFFF" stroke-width="0.967742"/>
</g>
</svg>
