<svg width="48" height="48" viewBox="0 0 48 48" fill="none" xmlns="http://www.w3.org/2000/svg">
<g opacity="0.5">
<path d="M23.9998 5.76002C12.884 5.76002 3.83984 13.2696 3.83984 22.5C3.83984 28.3791 7.62862 33.8966 13.7342 36.9244C13.4424 37.8316 12.5824 39.4355 11.6886 40.7363C11.4572 41.0732 11.4654 41.5189 11.7073 41.8481C11.8917 42.0997 12.1803 42.24 12.4798 42.24C12.5749 42.24 12.6689 42.2247 12.763 42.1969C15.0948 41.4769 17.6017 40.0782 18.9898 38.715C19.863 38.901 20.7516 39.0276 21.6467 39.1125C23.9429 41.0455 27.1147 42.2306 30.568 42.2306C31.6926 42.2306 32.8206 42.0989 33.9242 41.8425C34.9288 42.5427 36.0207 42.8063 37.0292 43.1494C37.4146 43.2817 37.8415 43.1563 38.0942 42.8366C38.3468 42.5169 38.3701 42.0725 38.1523 41.7281C37.8086 41.1817 37.6027 40.9518 37.4136 40.5113C40.9433 38.5845 43.1492 35.2875 43.1492 31.6744C43.1492 30.6645 42.971 29.6959 42.6598 28.7775C43.6159 26.8368 44.1598 24.7231 44.1598 22.5C44.1598 13.2696 35.1157 5.76002 23.9998 5.76002ZM30.568 23.04C36.546 23.04 41.2292 27.0144 41.2292 31.6744C41.2292 34.5309 39.4997 37.217 36.4405 38.8631C36.4398 38.8638 36.4392 38.8644 36.4386 38.865C35.8328 39.1919 35.5909 39.8393 35.5892 40.5019C35.4202 40.4182 35.1284 40.3593 34.9892 40.26C34.9886 40.2594 34.988 40.2588 34.9874 40.2582C34.6827 40.0425 34.3097 39.9207 33.9317 39.9207C33.7914 39.9207 33.6504 39.9372 33.5136 39.9694C32.5448 40.1964 31.5536 40.3106 30.568 40.3106C24.5899 40.3106 19.9067 36.3344 19.9067 31.6744C19.9068 27.0144 24.5899 23.04 30.568 23.04ZM25.6348 29.8144C24.948 29.8003 24.3072 30.1587 23.9597 30.7513C23.6121 31.3439 23.6121 32.078 23.9597 32.6706C24.3072 33.2632 24.948 33.6216 25.6348 33.6075C26.3217 33.6216 26.9625 33.2632 27.31 32.6706C27.6575 32.078 27.6575 31.3439 27.31 30.7513C26.9625 30.1587 26.3217 29.8003 25.6348 29.8144ZM30.9467 29.8144C30.2599 29.8003 29.6191 30.1587 29.2716 30.7513C28.924 31.3439 28.924 32.078 29.2716 32.6706C29.6191 33.2632 30.2599 33.6216 30.9467 33.6075C31.6336 33.6216 32.2743 33.2632 32.6219 32.6706C32.9694 32.078 32.9694 31.3439 32.6219 30.7513C32.2743 30.1587 31.6336 29.8003 30.9467 29.8144ZM36.2586 29.8144C35.5718 29.8003 34.931 30.1587 34.5834 30.7513C34.2359 31.3439 34.2359 32.078 34.5834 32.6706C34.931 33.2632 35.5718 33.6216 36.2586 33.6075C36.9454 33.6216 37.5862 33.2632 37.9337 32.6706C38.2813 32.078 38.2813 31.3439 37.9337 30.7513C37.5862 30.1587 36.9454 29.8003 36.2586 29.8144Z" fill="white"/>
</g>
</svg>
