<svg width="48" height="48" viewBox="0 0 48 48" fill="none" xmlns="http://www.w3.org/2000/svg">
<g opacity="0.5">
<path d="M45.2736 20.3721L39.6 19.4447C39.2678 18.3062 38.8137 17.2118 38.2454 16.1759L41.5574 11.4556C41.8252 11.0745 41.7792 10.5551 41.4499 10.2249L37.7164 6.49336C37.3833 6.1612 36.8592 6.118 36.4771 6.39352L31.8278 9.73528C30.7824 9.15736 29.6784 8.69848 28.5331 8.36536L27.5433 2.7148C27.4627 2.25592 27.0643 1.91992 26.5977 1.91992H21.3177C20.8473 1.91992 20.446 2.26072 20.3702 2.72536L19.4524 8.3452C18.3004 8.6764 17.1945 9.13048 16.1529 9.70072L11.5161 6.38872C11.1331 6.11512 10.6118 6.15928 10.2787 6.49048L6.54715 10.222C6.21787 10.5513 6.1718 11.0697 6.43964 11.4508L9.70268 16.1193C9.12188 17.1705 8.65915 18.2831 8.32219 19.4409L2.72443 20.373C2.26171 20.4498 1.92188 20.8511 1.92188 21.3196V26.5996C1.92188 27.0652 2.25595 27.4636 2.71387 27.5452L8.31164 28.5378C8.64668 29.6927 9.10939 30.8054 9.69211 31.8594L6.38875 36.4799C6.11611 36.861 6.15931 37.3842 6.49051 37.7174L10.223 41.4527C10.5523 41.782 11.0716 41.8281 11.4528 41.5602L16.128 38.2857C17.1772 38.8626 18.286 39.3206 19.4352 39.6527L20.3721 45.2793C20.448 45.741 20.8483 46.0799 21.3177 46.0799H26.5977C27.0633 46.0799 27.4617 45.7458 27.5424 45.2879L28.5456 39.6335C29.6966 39.2946 30.7996 38.8338 31.8384 38.2559L36.5472 41.5593C36.9292 41.829 37.4476 41.782 37.7779 41.4527L41.5104 37.7174C41.8425 37.3842 41.8857 36.8591 41.6102 36.477L38.2521 31.8143C38.8214 30.7775 39.2736 29.6812 39.6028 28.5426L45.2841 27.5452C45.744 27.4646 46.078 27.0652 46.078 26.5996V21.3196C46.079 20.8492 45.7382 20.4479 45.2736 20.3721ZM24 30.7199C20.2886 30.7199 17.28 27.7113 17.28 23.9999C17.28 20.2886 20.2886 17.2799 24 17.2799C27.7113 17.2799 30.72 20.2886 30.72 23.9999C30.72 27.7113 27.7113 30.7199 24 30.7199Z" fill="white"/>
</g>
</svg>
