<svg width="63" height="63" viewBox="0 0 63 63" fill="none" xmlns="http://www.w3.org/2000/svg">
<path d="M30.25 2.45374C31.0235 2.00716 31.9765 2.00716 32.75 2.45374L56.0298 15.8943C56.8033 16.3409 57.2798 17.1662 57.2798 18.0594V44.9406C57.2798 45.8338 56.8033 46.6591 56.0298 47.1057L32.75 60.5463C31.9765 60.9928 31.0235 60.9928 30.25 60.5463L6.9702 47.1057C6.1967 46.6591 5.7202 45.8338 5.7202 44.9406V18.0594C5.7202 17.1662 6.1967 16.3409 6.9702 15.8943L30.25 2.45374Z" stroke="#459BEB" stroke-width="3"/>
<path d="M29.25 8.58771C30.3329 7.9625 31.6671 7.9625 32.75 8.58771L50.4006 18.7783C51.4835 19.4035 52.1506 20.559 52.1506 21.8094V42.1906C52.1506 43.441 51.4835 44.5965 50.4006 45.2217L32.75 55.4123C31.6671 56.0375 30.3329 56.0375 29.25 55.4123L11.5994 45.2217C10.5165 44.5965 9.84937 43.441 9.84937 42.1906V21.8094C9.84937 20.559 10.5165 19.4035 11.5994 18.7783L29.25 8.58771Z" stroke="#459BEB"/>
<path d="M37.7703 16.582H28.0802L24.6063 24.8095H28.4458L24.7892 29.3804H27.7145L23.875 36.1452L38.6845 26.455H33.1995L37.5875 22.067H32.8338L37.7703 16.582Z" fill="white"/>
<g filter="url(#filter0_d_905_230)">
<path d="M34.4843 16.582H28.4508L25.3427 24.4439H29.1822L25.3427 29.3804H28.0852L24.6113 35.5967L34.6672 26.6379H30.0963L33.9358 22.4327H30.0963L34.4843 16.582Z" fill="url(#paint0_linear_905_230)"/>
</g>
<path d="M16.4395 44V39.8105H18.3145C19.1699 39.8105 19.5977 40.2041 19.5977 40.9912C19.5977 41.8447 19.0127 42.3613 17.8428 42.541L17.7314 41.8496C18.4346 41.7227 18.7861 41.4443 18.7861 41.0146C18.7861 40.667 18.6123 40.4932 18.2646 40.4932H17.2158V44H16.4395ZM20.8896 39.8105V43.3262H22.5537V44H20.1133V39.8105H20.8896ZM23.7197 44H22.9229L24.7012 39.8105H25.5361L27.3525 44H26.5176L26.04 42.8574H24.6484L24.915 42.1836H25.7588L25.0996 40.6104L23.7197 44ZM30.6045 39.8105V40.4844H29.4033V44H28.627V40.4844H27.4258V39.8105H30.6045ZM31.8232 39.8105V44H31.0469V39.8105H31.8232ZM32.7051 44V39.8105H33.4814L35.6934 42.8633V39.8105H36.4404V44H35.6641L33.4521 40.8828V44H32.7051ZM37.3223 42.3535V39.8105H38.0986V42.3535C38.0986 43.0215 38.4404 43.3555 39.124 43.3555C39.8076 43.3555 40.1494 43.0215 40.1494 42.3535V39.8105H40.9258V42.3535C40.9258 43.4707 40.3252 44.0293 39.124 44.0293C37.9229 44.0293 37.3223 43.4707 37.3223 42.3535ZM41.8047 44V39.8105H42.6104L44.0312 42.9893L45.4229 39.8105H46.1992V44H45.4814V41.082L44.3447 44H43.6826L42.5225 41.082V44H41.8047Z" fill="white"/>
<defs>
<filter id="filter0_d_905_230" x="20.6113" y="16.582" width="18.0566" height="27.0146" filterUnits="userSpaceOnUse" color-interpolation-filters="sRGB">
<feFlood flood-opacity="0" result="BackgroundImageFix"/>
<feColorMatrix in="SourceAlpha" type="matrix" values="0 0 0 0 0 0 0 0 0 0 0 0 0 0 0 0 0 0 127 0" result="hardAlpha"/>
<feOffset dy="4"/>
<feGaussianBlur stdDeviation="2"/>
<feComposite in2="hardAlpha" operator="out"/>
<feColorMatrix type="matrix" values="0 0 0 0 0 0 0 0 0 0 0 0 0 0 0 0 0 0 0.25 0"/>
<feBlend mode="normal" in2="BackgroundImageFix" result="effect1_dropShadow_905_230"/>
<feBlend mode="normal" in="SourceGraphic" in2="effect1_dropShadow_905_230" result="shape"/>
</filter>
<linearGradient id="paint0_linear_905_230" x1="29.6392" y1="16.582" x2="29.6392" y2="35.5967" gradientUnits="userSpaceOnUse">
<stop stop-color="#227DA4"/>
<stop offset="1" stop-color="#45A5EB"/>
</linearGradient>
</defs>
</svg>
