<svg width="50" height="50" viewBox="0 0 50 50" fill="none" xmlns="http://www.w3.org/2000/svg">
<path d="M20.0732 22.7637C23.8379 22.7637 26.8896 19.7754 26.8896 16.0889V13.8672C26.8896 10.1807 23.8379 7.19238 20.0732 7.19238C16.3086 7.19238 13.2568 10.1807 13.2568 13.8672V16.0889C13.2568 19.7754 16.3086 22.7637 20.0732 22.7637ZM31.2451 28.7939C27.7734 27.417 24.0088 26.6602 20.0732 26.6602C16.1426 26.6602 12.3877 27.417 8.9209 28.7891C6.89453 29.7217 5.46875 31.8164 5.46875 34.2773V37.0215C5.46875 38.833 6.63086 40.3564 8.21289 40.8545C12.0264 41.748 15.9961 42.2363 20.0732 42.2363C24.1455 42.2363 28.1104 41.748 31.9189 40.8496C33.5107 40.3564 34.6777 38.8379 34.6777 37.0117V34.2676C34.6777 31.8213 33.2666 29.7266 31.2451 28.7939ZM39.5459 17.8955V13.0273H36.6211V17.8955H31.7529V20.8154H36.6211V25.6836H39.541V20.8154H44.4092V17.8955H39.5459Z" fill="white"/>
</svg>
